<?xml version="1.0" encoding="UTF-8"?>
<svg version="1.1" xmlns="http://www.w3.org/2000/svg" width="512" height="512">
<path d="M0 0 C1.14716492 -0.00151062 1.14716492 -0.00151062 2.31750488 -0.00305176 C13.37684528 0.00682317 23.87583902 0.41745082 34.625 3.25 C35.8315625 3.55164063 37.038125 3.85328125 38.28125 4.1640625 C61.08851778 10.26252758 81.74383289 20.85304713 99.625 36.25 C100.50542969 37.00667969 101.38585937 37.76335938 102.29296875 38.54296875 C128.70786778 61.76090572 146.68792583 96.27651001 150.625 131.25 C150.73457031 132.19359375 150.84414063 133.1371875 150.95703125 134.109375 C154.77862264 172.63101616 144.67979304 211.31295041 121.15625 242.2109375 C114.45276288 250.25926 107.23647852 257.78816926 99.83602905 265.19287109 C98.88179855 266.15112958 97.92777466 267.10959383 96.97393668 268.06824303 C94.38027877 270.67372178 91.78359442 273.27616488 89.1863215 275.87803936 C86.37463806 278.69573397 83.5657518 281.51621504 80.75640869 284.33624268 C73.98861362 291.12842531 67.21599177 297.91578466 60.44246286 304.70224857 C58.52653801 306.62189347 56.61073955 308.54166442 54.69498491 310.46147919 C42.77127493 322.410419 30.84596441 334.35775897 18.91586876 346.30032349 C16.16020141 349.05891995 13.4045504 351.81753273 10.64892578 354.57617188 C9.96412732 355.26171638 9.27932887 355.94726089 8.57377894 356.65357947 C-2.52035695 367.76037058 -13.60416277 378.87741173 -24.68378229 389.99868178 C-36.08449263 401.44189487 -47.49468683 412.87558314 -58.91406 424.30017281 C-65.31527712 430.70479307 -71.71231976 437.11346235 -78.0986824 443.53289795 C-83.5362141 448.99854524 -88.98231117 454.45547586 -94.43948968 459.90150976 C-97.21835802 462.67522223 -99.99316284 465.45268191 -102.75694656 468.24143219 C-129.43754312 495.14977584 -157.76061454 512.35022229 -196.625 512.6875 C-230.45593945 512.54671824 -259.58923871 499.68343511 -283.3425293 475.77050781 C-304.42378429 453.69806399 -315.0088739 422.94683887 -314.72631836 392.71630859 C-313.59143921 351.88438485 -292.44235643 323.66618618 -264.58812463 295.92556691 C-261.77303303 293.11755574 -258.96958511 290.29795568 -256.164505 287.47994995 C-250.68716052 281.98110855 -245.19914652 276.49304093 -239.7069585 271.00902899 C-235.23936458 266.54776664 -230.77555017 262.0827549 -226.31432533 257.61512375 C-225.67639825 256.97629501 -225.03847116 256.33746627 -224.38121295 255.67927908 C-223.08480778 254.38102249 -221.78840818 253.08276032 -220.49201409 251.78449266 C-208.37196099 239.64791191 -196.23936007 227.52393739 -184.10260151 215.40406565 C-173.02416637 204.34033282 -161.96047534 193.26199152 -150.90381118 182.17650516 C-139.51676985 170.76000435 -128.12047418 159.35282033 -116.713929 147.95580518 C-115.42164603 146.66454464 -114.12937696 145.37327019 -112.83712196 144.08198166 C-112.20149892 143.446835 -111.56587587 142.81168834 -110.91099152 142.15729482 C-106.45574287 137.70420111 -102.00647422 133.24518719 -97.55962181 128.78371048 C-92.13339914 123.33988981 -86.69831438 117.90510417 -81.25197073 112.48141105 C-78.47923391 109.71974704 -75.7104898 106.95439418 -72.95267868 104.1778183 C-46.29558578 77.3526752 -46.29558578 77.3526752 -30 71.75 C-29.33282959 71.51772705 -28.66565918 71.2854541 -27.97827148 71.04614258 C-23.17587924 69.41104932 -18.39352784 68.00473954 -13.375 67.25 C-12.2921875 67.08564453 -12.2921875 67.08564453 -11.1875 66.91796875 C10.56813307 64.08520403 32.37762229 69.52198892 50.33984375 82.16015625 C52.85423792 84.10890859 55.25024339 86.13380148 57.625 88.25 C58.38425781 88.91515625 59.14351563 89.5803125 59.92578125 90.265625 C75.18635515 104.49828459 83.88414932 125.19308627 84.90625 145.890625 C85.64345359 171.22175948 77.48634229 191.92730818 60.23206902 210.46051598 C52.59861184 218.53950832 44.69164884 226.35806297 36.840186 234.22417486 C34.1588038 236.91158808 31.48020601 239.60177463 28.80114746 242.29150391 C22.35601863 248.76096602 15.90611059 255.2256525 9.45528141 261.68943003 C7.63070479 263.51772904 5.80625327 265.34615278 3.98184466 267.17461944 C-7.37650167 278.55818494 -18.73644487 289.94015431 -30.10116482 301.31735706 C-32.7231433 303.94226454 -35.34510537 306.56718841 -37.96704102 309.19213867 C-38.61859864 309.84444235 -39.27015626 310.49674602 -39.94145805 311.16881647 C-50.51046468 321.75049394 -61.06913444 332.34242456 -71.62365221 342.9385517 C-82.48541364 353.84277954 -93.35662396 364.73751559 -104.23702866 375.62314147 C-110.33574811 381.72526684 -116.43027416 387.83145405 -122.51415825 393.94837379 C-127.69044539 399.15272556 -132.87523235 404.34841883 -138.0711525 409.53317259 C-140.71802954 412.17488202 -143.36078432 414.82038165 -145.99260902 417.47709465 C-148.85350942 420.36482206 -151.73369037 423.23254587 -154.61595154 426.09895325 C-155.84211478 427.34593962 -155.84211478 427.34593962 -157.09304899 428.61811763 C-169.06866661 440.43285178 -182.58349538 446.25 -199.375 446.25 C-207.01567541 445.64925894 -213.62830288 443.85537783 -220.375 440.25 C-221.19871094 439.82847656 -222.02242188 439.40695312 -222.87109375 438.97265625 C-234.95999022 432.33020324 -242.04486051 421.47722838 -246.25390625 408.55078125 C-249.3700911 395.01825821 -247.60031359 380.12839144 -240.38902569 368.1855154 C-238.25655794 365.0773664 -235.89858275 362.33061745 -233.32637024 359.59034729 C-232.55163942 358.75885079 -232.55163942 358.75885079 -231.76125747 357.91055638 C-223.88975232 349.52902342 -215.71776757 341.4363616 -207.59057617 333.30444336 C-205.71822514 331.42745456 -203.84605948 329.55028235 -201.97409058 327.6729126 C-196.92556465 322.61093376 -191.87338016 317.55261753 -186.82033706 312.49514842 C-183.66045636 309.33248848 -180.50130664 306.16909904 -177.34227943 303.00558662 C-168.57735214 294.2284941 -159.8114985 285.4523291 -151.04218578 276.67961788 C-150.48355442 276.12076695 -149.92492305 275.56191602 -149.34936346 274.98613021 C-148.78951382 274.42606228 -148.22966417 273.86599436 -147.65284938 273.28895468 C-146.51864608 272.15430793 -145.38444433 271.01965962 -144.25024414 269.88500977 C-143.68765891 269.32220311 -143.12507368 268.75939645 -142.54544041 268.17953504 C-133.40501915 259.03515524 -124.27138758 249.88402533 -115.14061054 240.73001664 C-105.74299727 231.30868725 -96.33976565 221.89299613 -86.93086988 212.48293406 C-81.65713953 207.20828821 -76.38583876 201.93126471 -71.12074852 196.64799309 C-66.64512102 192.15696259 -62.16438428 187.6711094 -57.67692115 183.19190382 C-55.38967128 180.90855688 -53.10572882 178.62206813 -50.82664299 176.33056831 C-48.35368311 173.84492914 -45.871652 171.3687133 -43.38713074 168.89463806 C-42.31523704 167.81065976 -42.31523704 167.81065976 -41.22168893 166.7047829 C-36.70054756 162.22798615 -32.17600637 157.95885141 -25.71484375 156.75390625 C-18.84874762 156.92137201 -14.73250304 157.99965619 -9.625 162.875 C-6.73169479 166.67950847 -5.66053444 170.51629302 -5.375 175.25 C-6.57163101 182.95097221 -10.85656727 187.57318658 -16.26365662 192.84672546 C-17.07602455 193.66280881 -17.88839248 194.47889216 -18.72537762 195.31970531 C-21.44278084 198.04229529 -24.18101471 200.74290089 -26.91967773 203.4440918 C-28.87718162 205.39326746 -30.83012032 207.34699385 -32.78323364 209.30056763 C-36.98718025 213.50084606 -41.20183075 217.69012736 -45.42391777 221.87216759 C-51.53362079 227.92412916 -57.62562039 233.99366384 -63.71331895 240.06775007 C-73.59876682 249.93032939 -83.49680004 259.78017373 -93.40356445 269.62133789 C-103.01215198 279.16638095 -112.61729567 288.71485749 -122.21606445 298.26977539 C-122.80742679 298.85843058 -123.39878913 299.44708577 -124.00807153 300.053579 C-130.4656671 306.48188581 -136.92185581 312.91160294 -143.37636662 319.34300709 C-143.94381883 319.90842254 -144.51127105 320.47383799 -145.09591879 321.05638725 C-147.36449248 323.31685677 -149.63305052 325.57734196 -151.90142835 327.83800802 C-158.53787381 334.45182259 -165.17865279 341.06121372 -171.82738734 347.66267536 C-175.99704366 351.8028943 -180.16344627 355.94636701 -184.32732254 360.09239896 C-186.7292134 362.48366285 -189.13333722 364.87256906 -191.54084587 367.25818443 C-194.15163159 369.84560689 -196.75619711 372.43913701 -199.35935974 375.03422546 C-200.11996073 375.78490805 -200.88056171 376.53559063 -201.66421121 377.30902117 C-207.3905372 383.03765554 -212.07616332 387.73315467 -212.375 396.25 C-211.41755856 401.80316033 -209.69452503 404.65039581 -205.375 408.25 C-202.53105123 409.92118639 -200.35814788 410.56646274 -197.0625 410.625 C-196.34449219 410.65335937 -195.62648437 410.68171875 -194.88671875 410.7109375 C-186.96168059 409.25657591 -181.54522201 402.84896011 -176.12110901 397.39051819 C-175.21014039 396.48564067 -174.29917176 395.58076315 -173.36059803 394.6484651 C-170.84254416 392.14676609 -168.3338786 389.63583629 -165.82672632 387.12321842 C-163.11695023 384.41076651 -160.39858292 381.70694728 -157.68136597 379.00195312 C-152.36241203 373.70403481 -147.05172313 368.3979061 -141.74416966 363.08856893 C-137.42701174 358.770102 -133.10730148 354.45420442 -128.78577995 350.14010429 C-127.53965054 348.89607416 -126.29352196 347.65204318 -125.04739422 346.40801138 C-124.4270881 345.78874879 -123.80678198 345.1694862 -123.16767871 344.53145807 C-111.44014568 332.82282122 -99.72259719 321.10423116 -88.00792199 309.38273203 C-77.30632444 298.67556433 -66.59160237 287.98164103 -55.87066782 277.29383833 C-44.85004581 266.30700889 -33.83879599 255.31086458 -22.83736461 244.30481809 C-16.66584767 238.13106147 -10.49068413 231.96106211 -4.30557442 225.80092049 C0.96238537 220.55404623 6.22144088 215.298439 11.4694448 210.03160167 C14.1436863 207.34824547 16.82166674 204.66894695 19.51084709 202.00055504 C41.26025666 180.67143584 41.26025666 180.67143584 49.62109375 152.09765625 C49.64112137 137.49752122 43.94032404 125.05808398 34.04296875 114.57421875 C23.68712603 104.82309677 10.53351589 101.54600712 -3.2734375 101.94140625 C-19.0023028 102.82583381 -30.64468719 111.90176566 -41.33096313 122.69129944 C-42.2777862 123.63278349 -43.22547433 124.57339822 -44.17393911 125.51322836 C-46.75164754 128.07246154 -49.31692257 130.64383686 -51.88013506 133.21757734 C-54.6568811 136.00135885 -57.44515342 138.77355684 -60.23188782 141.54733276 C-65.67964862 146.97351938 -71.11654767 152.41046283 -76.54945089 157.85152138 C-80.96889632 162.27728327 -85.39206904 166.69928743 -89.81788254 171.11868095 C-90.44935137 171.74924813 -91.0808202 172.3798153 -91.73142444 173.02949057 C-93.0145434 174.31075819 -94.29766796 175.5920202 -95.58079807 176.87327664 C-107.59668682 188.87260926 -119.59992926 200.88452932 -131.59910612 212.90057027 C-142.55714179 223.87329463 -153.52975945 234.83129989 -164.50955386 245.78224785 C-175.80497713 257.048218 -187.09109004 268.32343537 -198.3670305 279.60890669 C-199.64458934 280.887488 -200.92216212 282.16605539 -202.19974899 283.44460869 C-202.82821897 284.07355506 -203.45668895 284.70250142 -204.10420347 285.35050677 C-208.5146275 289.76308746 -212.93097815 294.16968123 -217.34978104 298.57386971 C-222.74324313 303.94974119 -228.12768239 309.33446094 -233.50101496 314.73045529 C-236.23821286 317.47873549 -238.97911851 320.22300118 -241.73122215 322.95636177 C-257.29612461 338.22165784 -257.29612461 338.22165784 -269.375 356.25 C-269.88402674 357.20438996 -270.39305347 358.15877993 -270.91750526 359.1420908 C-280.66283601 378.19474567 -281.49464733 400.80880229 -275.1875 421 C-271.0613175 432.37716403 -265.40687337 442.20439504 -257.375 451.25 C-256.78332031 451.93578125 -256.19164062 452.6215625 -255.58203125 453.328125 C-242.01042281 468.02828937 -221.47375123 476.55607243 -201.73046875 477.53125 C-178.52156984 478.20958453 -158.29916275 471.13645563 -140.65917063 455.90498304 C-138.06706646 453.45045204 -135.53789493 450.94680649 -133.02667236 448.40960693 C-132.06162513 447.44918445 -131.09571038 446.48963304 -130.12902045 445.530864 C-127.51024366 442.92858769 -124.90384793 440.31422757 -122.29956174 437.69746041 C-119.47517025 434.86394067 -116.63919565 432.04205174 -113.80476379 429.21858215 C-108.26780097 423.69932687 -102.74161025 418.16940863 -97.21931443 412.63548222 C-92.72763168 408.1347347 -88.23202196 403.63794455 -83.73363495 399.14389801 C-83.09133565 398.50221165 -82.44903636 397.86052529 -81.78727345 397.19939388 C-80.48209286 395.8954923 -79.17690335 394.59159965 -77.87170503 393.28771582 C-65.65763589 381.08502974 -53.455816 368.87015467 -41.25820801 356.65101734 C-30.81106508 346.18600553 -20.35347975 335.73152495 -9.88818359 325.28466797 C2.28976315 313.12816821 14.46114209 300.96515334 26.62223935 288.79179597 C27.92111724 287.491644 29.22000342 286.19150033 30.51889801 284.89136505 C31.15783445 284.25181151 31.7967709 283.61225796 32.45506905 282.95332401 C36.93974305 278.46520858 41.4290163 273.98172606 45.92012787 269.50005341 C51.39949917 264.03194609 56.87159314 258.55667603 62.33472052 253.07233778 C65.11773291 250.27887396 67.90373449 247.48858981 70.69863701 244.7070179 C73.26461819 242.15309002 75.8209398 239.58986687 78.37034717 237.01939753 C79.71546826 235.66779923 81.070256 234.32584162 82.42553973 232.98443389 C90.90767259 224.39460361 97.81123029 214.5986092 103.375 203.875 C103.9321167 202.80584351 103.9321167 202.80584351 104.50048828 201.71508789 C108.01757053 194.77550168 110.59832371 187.7765194 112.625 180.25 C112.94339844 179.08082031 113.26179688 177.91164062 113.58984375 176.70703125 C119.02446775 152.93994288 116.74678621 126.44441949 106.625 104.25 C105.87089844 102.56197266 105.87089844 102.56197266 105.1015625 100.83984375 C92.28003373 73.66181446 69.64113551 53.06553138 41.625 42.25 C12.32997493 31.81996675 -19.15749509 32.50496692 -47.62792969 45.25927734 C-72.26292227 56.97513404 -90.3249157 77.04223978 -109.30397487 96.10688639 C-111.93175012 98.74531041 -114.56260367 101.380662 -117.19311523 104.01635742 C-121.73369835 108.56657382 -126.27258695 113.11847452 -130.81044388 117.67140961 C-137.98384986 124.86835615 -145.16258775 132.05997164 -152.34213257 139.25079346 C-154.80566234 141.71832261 -157.26915737 144.18588646 -159.73264122 146.65346146 C-160.34790059 147.26974005 -160.96315996 147.88601865 -161.59706355 148.52097236 C-168.57129793 155.50690623 -175.54443409 162.49393584 -182.51708984 169.48144531 C-183.15326856 170.11897646 -183.78944728 170.75650761 -184.44490413 171.41335788 C-194.78987012 181.78057957 -205.13101322 192.15160823 -215.47123678 202.52355966 C-226.10985108 213.19453666 -236.75420115 223.85976947 -247.40349424 234.52008939 C-253.96231515 241.08613265 -260.51635871 247.65687304 -267.06433527 254.23373118 C-271.54213099 258.73049167 -276.0253324 263.22181439 -280.51286598 267.70885691 C-283.10168527 270.29773933 -285.68796645 272.88903379 -288.26775742 275.48691559 C-291.06192029 278.30055873 -293.86757192 281.10256064 -296.67446899 283.90350342 C-297.89794224 285.14110763 -297.89794224 285.14110763 -299.14613211 286.40371394 C-299.89925032 287.1514757 -300.65236852 287.89923746 -301.42830849 288.66965866 C-302.07443553 289.31746693 -302.72056257 289.96527521 -303.38626921 290.63271403 C-307.65047901 294.10047685 -311.85356193 294.65068027 -317.171875 294.4921875 C-323.17504591 293.83226446 -326.45318199 290.43386522 -330.17578125 286.06640625 C-332.78327349 282.11694732 -332.75991954 277.86903445 -332.375 273.25 C-329.45949991 265.97650726 -324.97158529 261.28787614 -319.44390869 255.8311615 C-318.07517534 254.45624325 -318.07517534 254.45624325 -316.67879081 253.05354887 C-314.15823247 250.522152 -311.62543442 248.0033272 -309.09038019 245.48645866 C-306.35364442 242.76498495 -303.62851603 240.03193037 -300.9019165 237.30030823 C-295.56322062 231.95539462 -290.2139992 226.62113634 -284.86121681 221.29033416 C-278.62381529 215.07765933 -272.39734906 208.85407274 -266.17140171 202.62992281 C-255.05880465 191.5212005 -243.93694733 180.42179676 -232.80957031 169.32788086 C-222.02106314 158.5717892 -211.2381486 147.81013567 -200.46191406 137.04174805 C-199.79840117 136.37872065 -199.13488828 135.71569325 -198.45126894 135.03257411 C-195.78393637 132.36717043 -193.11661218 129.70175837 -190.4493065 127.03632778 C-180.16843918 116.763003 -169.88353301 106.49372209 -159.59777565 96.22529353 C-156.49381065 93.12655693 -153.38999323 90.02767283 -150.28654194 86.92842174 C-143.76112352 80.41194168 -137.23426321 73.89691821 -130.702925 67.38637083 C-128.00305428 64.69506427 -125.30391845 62.00303282 -122.60690308 59.30886459 C-119.67865595 56.38379915 -116.74654459 53.46263783 -113.81402588 50.54185486 C-112.96848467 49.69612929 -112.12294346 48.85040372 -111.25177979 47.9790501 C-80.80448798 17.70275747 -43.45194984 0.03944061 0 0 Z " fill="#000000" transform="translate(346.375,-0.24999999999999997)"/>
</svg>
